# Blender v2.92.0 OBJ File: 'FurDog.blend'
# www.blender.org
mtllib Eyes.mtl
o Eyes_Circle.001
v -0.073118 1.468319 0.709204
v -0.076792 1.467957 0.709204
v -0.080324 1.466886 0.709204
v -0.083580 1.465145 0.709204
v -0.086434 1.462804 0.709204
v -0.088775 1.459950 0.709204
v -0.090516 1.456695 0.709204
v -0.091587 1.453162 0.709204
v -0.091949 1.449488 0.709204
v -0.091587 1.445815 0.709204
v -0.090516 1.442282 0.709204
v -0.088775 1.439027 0.709204
v -0.086434 1.436173 0.709204
v -0.083580 1.433831 0.709204
v -0.080324 1.432091 0.709204
v -0.076792 1.431020 0.709204
v -0.073118 1.430658 0.709204
v -0.069445 1.431020 0.709204
v -0.065912 1.432091 0.709204
v -0.062657 1.433831 0.709204
v -0.059803 1.436173 0.709204
v -0.057461 1.439027 0.709204
v -0.055721 1.442282 0.709204
v -0.054650 1.445815 0.709204
v -0.054288 1.449488 0.709204
v -0.054650 1.453162 0.709204
v -0.055721 1.456695 0.709204
v -0.057461 1.459950 0.709204
v -0.059803 1.462804 0.709204
v -0.062657 1.465145 0.709204
v -0.065912 1.466886 0.709204
v -0.069445 1.467957 0.709204
v 0.073118 1.468319 0.709204
v 0.069444 1.467957 0.709204
v 0.065912 1.466886 0.709204
v 0.062656 1.465145 0.709204
v 0.059803 1.462804 0.709204
v 0.057461 1.459950 0.709204
v 0.055721 1.456695 0.709204
v 0.054649 1.453162 0.709204
v 0.054287 1.449488 0.709204
v 0.054649 1.445815 0.709204
v 0.055721 1.442282 0.709204
v 0.057461 1.439027 0.709204
v 0.059803 1.436173 0.709204
v 0.062656 1.433831 0.709204
v 0.065912 1.432091 0.709204
v 0.069444 1.431020 0.709204
v 0.073118 1.430658 0.709204
v 0.076792 1.431020 0.709204
v 0.080324 1.432091 0.709204
v 0.083580 1.433831 0.709204
v 0.086433 1.436173 0.709204
v 0.088775 1.439027 0.709204
v 0.090515 1.442282 0.709204
v 0.091587 1.445815 0.709204
v 0.091949 1.449488 0.709204
v 0.091587 1.453162 0.709204
v 0.090515 1.456695 0.709204
v 0.088775 1.459950 0.709204
v 0.086433 1.462804 0.709204
v 0.083580 1.465145 0.709204
v 0.080324 1.466886 0.709204
v 0.076792 1.467957 0.709204
vt 0.000000 0.000000
vt 0.000000 0.000000
vt 0.000000 0.000000
vt 0.000000 0.000000
vt 0.000000 0.000000
vt 0.000000 0.000000
vt 0.000000 0.000000
vt 0.000000 0.000000
vt 0.000000 0.000000
vt 0.000000 0.000000
vt 0.000000 0.000000
vt 0.000000 0.000000
vt 0.000000 0.000000
vt 0.000000 0.000000
vt 0.000000 0.000000
vt 0.000000 0.000000
vt 0.000000 0.000000
vt 0.000000 0.000000
vt 0.000000 0.000000
vt 0.000000 0.000000
vt 0.000000 0.000000
vt 0.000000 0.000000
vt 0.000000 0.000000
vt 0.000000 0.000000
vt 0.000000 0.000000
vt 0.000000 0.000000
vt 0.000000 0.000000
vt 0.000000 0.000000
vt 0.000000 0.000000
vt 0.000000 0.000000
vt 0.000000 0.000000
vt 0.000000 0.000000
vt 0.000000 0.000000
vt 0.000000 0.000000
vt 0.000000 0.000000
vt 0.000000 0.000000
vt 0.000000 0.000000
vt 0.000000 0.000000
vt 0.000000 0.000000
vt 0.000000 0.000000
vt 0.000000 0.000000
vt 0.000000 0.000000
vt 0.000000 0.000000
vt 0.000000 0.000000
vt 0.000000 0.000000
vt 0.000000 0.000000
vt 0.000000 0.000000
vt 0.000000 0.000000
vt 0.000000 0.000000
vt 0.000000 0.000000
vt 0.000000 0.000000
vt 0.000000 0.000000
vt 0.000000 0.000000
vt 0.000000 0.000000
vt 0.000000 0.000000
vt 0.000000 0.000000
vt 0.000000 0.000000
vt 0.000000 0.000000
vt 0.000000 0.000000
vt 0.000000 0.000000
vt 0.000000 0.000000
vt 0.000000 0.000000
vt 0.000000 0.000000
vt 0.000000 0.000000
vn -0.0000 0.0000 1.0000
usemtl EyeMat
s off
f 2/1/1 3/2/1 4/3/1 5/4/1 6/5/1 7/6/1 8/7/1 9/8/1 10/9/1 11/10/1 12/11/1 13/12/1 14/13/1 15/14/1 16/15/1 17/16/1 18/17/1 19/18/1 20/19/1 21/20/1 22/21/1 23/22/1 24/23/1 25/24/1 26/25/1 27/26/1 28/27/1 29/28/1 30/29/1 31/30/1 32/31/1 1/32/1
f 34/33/1 35/34/1 36/35/1 37/36/1 38/37/1 39/38/1 40/39/1 41/40/1 42/41/1 43/42/1 44/43/1 45/44/1 46/45/1 47/46/1 48/47/1 49/48/1 50/49/1 51/50/1 52/51/1 53/52/1 54/53/1 55/54/1 56/55/1 57/56/1 58/57/1 59/58/1 60/59/1 61/60/1 62/61/1 63/62/1 64/63/1 33/64/1
