# Blender v2.92.0 OBJ File: 'FurDog.blend'
# www.blender.org
mtllib Floppy.mtl
o Floppy_Floppy_Ears
v -0.243470 1.630658 0.549365
v -0.251618 1.622956 0.548047
v -0.245079 1.632506 0.542727
v -0.235343 1.638919 0.548228
v -0.260077 1.609335 0.547941
v -0.262729 1.607019 0.546048
v -0.269771 1.595645 0.544017
v -0.267271 1.601547 0.540990
v -0.270558 1.598312 0.537201
v -0.263836 1.610500 0.536859
v -0.261840 1.614501 0.535020
v -0.253449 1.625981 0.536563
v -0.246229 1.633384 0.535228
v -0.238690 1.640636 0.536744
v -0.227287 1.648811 0.535445
v -0.223213 1.650837 0.537358
v -0.211148 1.657303 0.537931
v -0.214315 1.654130 0.541641
v -0.208531 1.656452 0.544769
v -0.219938 1.649663 0.546595
v -0.223524 1.647247 0.548618
v -0.103878 1.469955 0.531955
v -0.109341 1.454360 0.533126
v -0.140147 1.483424 0.530569
v -0.127353 1.498812 0.530118
v -0.126333 1.446164 0.533557
v -0.153576 1.470271 0.531470
v -0.188750 1.509583 0.531646
v -0.176182 1.524518 0.531279
v -0.161819 1.540133 0.531219
v -0.124270 1.436292 0.535482
v -0.160530 1.457793 0.532812
v -0.137057 1.427407 0.535757
v -0.166420 1.448028 0.532558
v -0.202405 1.486163 0.530112
v -0.197415 1.496198 0.531831
v -0.125692 1.424272 0.535042
v -0.163447 1.442031 0.529979
v -0.129995 1.419908 0.531782
v -0.159651 1.440981 0.525336
v -0.198295 1.482239 0.519353
v -0.202220 1.481044 0.525583
v -0.114129 1.426022 0.530168
v -0.149200 1.446805 0.520894
v -0.112701 1.432232 0.525308
v -0.139500 1.457181 0.516734
v -0.179500 1.501974 0.509189
v -0.190104 1.489852 0.513552
v -0.102258 1.443095 0.523340
v -0.126516 1.469887 0.514721
v -0.089770 1.455748 0.522823
v -0.112881 1.483827 0.514130
v -0.152415 1.530348 0.506419
v -0.166457 1.515841 0.506988
v -0.077083 1.468093 0.523649
v -0.098888 1.497320 0.515060
v -0.066317 1.478289 0.525878
v -0.086070 1.510234 0.517390
v -0.123869 1.557213 0.509872
v -0.137837 1.544260 0.507340
v -0.061030 1.478748 0.530821
v -0.075788 1.519700 0.521795
v -0.053876 1.495490 0.532717
v -0.069577 1.530420 0.526442
v -0.103959 1.575910 0.520511
v -0.111712 1.567691 0.514515
v -0.058862 1.490631 0.535863
v -0.070560 1.534263 0.531119
v -0.060903 1.503025 0.536692
v -0.076175 1.537637 0.533666
v -0.107627 1.580273 0.531276
v -0.102658 1.579904 0.526805
v -0.070732 1.489452 0.536140
v -0.086147 1.531653 0.533725
v -0.079815 1.492353 0.534129
v -0.098553 1.524905 0.532145
v -0.131069 1.566824 0.532350
v -0.117667 1.575357 0.532806
v -0.089058 1.474500 0.533375
v -0.112045 1.511328 0.530914
v -0.146146 1.554342 0.531648
v -0.209322 1.562424 0.536805
v -0.195072 1.577788 0.537017
v -0.221311 1.547267 0.536502
v -0.245509 1.576824 0.543072
v -0.234210 1.591322 0.543796
v -0.220817 1.605789 0.544196
v -0.230174 1.534590 0.535750
v -0.235193 1.524371 0.532746
v -0.259068 1.556208 0.538323
v -0.254942 1.569668 0.542598
v -0.236513 1.520661 0.527231
v -0.233905 1.523581 0.520757
v -0.259345 1.556956 0.527104
v -0.260876 1.553223 0.532765
v -0.227212 1.532457 0.515449
v -0.217247 1.545127 0.511988
v -0.244913 1.578575 0.521331
v -0.253723 1.566314 0.523311
v -0.204864 1.559265 0.510327
v -0.191072 1.573610 0.509970
v -0.220801 1.605650 0.520488
v -0.233613 1.592188 0.520613
v -0.176642 1.587288 0.510673
v -0.162440 1.599548 0.512661
v -0.193603 1.629523 0.521961
v -0.207257 1.618359 0.520937
v -0.149739 1.609384 0.516400
v -0.140833 1.615998 0.521899
v -0.171985 1.643700 0.528177
v -0.181327 1.638200 0.524200
v -0.137879 1.618599 0.528442
v -0.141509 1.617340 0.533889
v -0.171004 1.643270 0.539354
v -0.168245 1.645173 0.533898
v -0.151474 1.612321 0.536662
v -0.164138 1.603541 0.537138
v -0.190340 1.628857 0.543420
v -0.183291 1.638618 0.543215
v -0.179552 1.591890 0.537158
v -0.205615 1.618946 0.544052
v -0.248115 1.610169 0.547942
v -0.236323 1.623245 0.548606
v -0.257935 1.592497 0.546520
v -0.270006 1.579000 0.542382
v -0.264835 1.587351 0.545486
v -0.271345 1.578653 0.537803
v -0.270917 1.581680 0.533253
v -0.265944 1.591251 0.530975
v -0.259290 1.601557 0.529879
v -0.249719 1.613909 0.530019
v -0.238992 1.625312 0.529850
v -0.227506 1.635966 0.530292
v -0.215149 1.645388 0.530421
v -0.204830 1.651934 0.531726
v -0.195311 1.656752 0.534181
v -0.192296 1.657144 0.538773
v -0.192714 1.655771 0.543335
v -0.201774 1.650826 0.546384
v -0.202885 1.640000 0.546589
v -0.213030 1.645910 0.548330
v -0.221036 1.635892 0.548202
v -0.086207 1.449411 0.535520
vt 0.089468 0.047129
vt 0.105947 0.032024
vt 0.084026 0.036997
vt 0.069271 0.054991
vt 0.222885 0.842821
vt 0.221740 0.811240
vt 0.211706 0.791110
vt 0.220254 0.850821
vt 0.217556 0.878448
vt 0.210763 0.865407
vt 0.203211 0.873924
vt 0.201444 0.844087
vt 0.198254 0.837183
vt 0.200882 0.808001
vt 0.197902 0.793075
vt 0.201005 0.773192
vt 0.244204 0.846221
vt 0.246662 0.874489
vt 0.257362 0.890485
vt 0.247445 0.838859
vt 0.249378 0.809930
vt 0.256884 0.817775
vt 0.263744 0.805394
vt 0.266286 0.832120
vt 0.268857 0.840535
vt 0.267528 0.871194
vt 0.211861 0.452725
vt 0.147436 0.382919
vt 0.134331 0.400320
vt 0.179457 0.453463
vt 0.100211 0.288591
vt 0.086096 0.305503
vt 0.574147 0.403482
vt 0.552367 0.334284
vt 0.545876 0.349144
vt 0.585241 0.439752
vt 0.543513 0.363496
vt 0.572293 0.429972
vt 0.520424 0.800736
vt 0.487240 0.687470
vt 0.472688 0.694253
vt 0.511424 0.815088
vt 0.533761 0.226542
vt 0.522678 0.235879
vt 0.904466 0.698823
vt 0.876647 0.632840
vt 0.857779 0.644958
vt 0.896458 0.739878
vt 0.828489 0.659574
vt 0.868811 0.728305
vt 0.780465 0.540312
vt 0.749223 0.551628
vt 0.802903 0.533438
vt 0.796426 0.677784
vt 0.852730 0.768175
vt 0.763061 0.697936
vt 0.812323 0.763305
vt 0.716164 0.568053
vt 0.682586 0.587663
vt 0.729865 0.718380
vt 0.802809 0.798622
vt 0.698977 0.738564
vt 0.755293 0.797539
vt 0.649787 0.608536
vt 0.620070 0.630399
vt 0.672538 0.757937
vt 0.757527 0.824612
vt 0.652814 0.769356
vt 0.712081 0.816158
vt 0.595736 0.652979
vt 0.579279 0.669826
vt 0.414350 0.429939
vt 0.450809 0.363138
vt 0.448878 0.348667
vt 0.399136 0.439896
vt 0.442773 0.333941
vt 0.413153 0.403457
vt 0.482669 0.235392
vt 0.471783 0.226180
vt 0.358587 0.854860
vt 0.386441 0.734028
vt 0.371668 0.727114
vt 0.349084 0.840389
vt 0.369737 0.334304
vt 0.355109 0.262063
vt 0.333532 0.266380
vt 0.350171 0.366113
vt 0.308710 0.166096
vt 0.287423 0.171354
vt 0.059340 0.213294
vt 0.044481 0.228701
vt 0.031472 0.156556
vt 0.016447 0.170084
vt 0.528180 0.129976
vt 0.514890 0.134589
vt 0.474118 0.586180
vt 0.458589 0.587279
vt 0.469298 0.507432
vt 0.455014 0.504971
vt 0.531278 0.054444
vt 0.518030 0.055841
vt 0.437654 0.584826
vt 0.449968 0.695096
vt 0.723810 0.457988
vt 0.692764 0.469149
vt 0.320034 0.556313
vt 0.253376 0.522798
vt 0.235042 0.547499
vt 0.303677 0.584147
vt 0.328889 0.535278
vt 0.265153 0.504763
vt 0.659811 0.485186
vt 0.626402 0.504461
vt 0.284293 0.615031
vt 0.215276 0.575970
vt 0.195278 0.606618
vt 0.263562 0.647540
vt 0.593987 0.525333
vt 0.564685 0.547265
vt 0.243162 0.680248
vt 0.176249 0.637851
vt 0.159104 0.667905
vt 0.223647 0.711042
vt 0.540618 0.569717
vt 0.409361 0.735273
vt 0.417459 0.625019
vt 0.396387 0.627074
vt 0.205566 0.737811
vt 0.144763 0.695015
vt 0.133577 0.713389
vt 0.190343 0.754956
vt 0.380761 0.625845
vt 0.494499 0.134123
vt 0.481323 0.129636
vt 0.492429 0.055492
vt 0.479267 0.054209
vt 0.398926 0.544880
vt 0.384579 0.547213
vt 0.265030 0.090587
vt 0.244852 0.097121
vt 0.226813 0.038347
vt 0.208228 0.045867
vt 0.067850 0.077779
vt 0.048124 0.079167
vt 0.043535 0.098428
vt 0.095222 0.058267
vt 0.023257 0.117908
vt 0.008955 0.129822
vt 0.039255 0.082878
vt 0.020726 0.102778
vt 0.538710 0.009804
vt 0.527613 0.010205
vt 0.461018 0.461796
vt 0.447848 0.458132
vt 0.209353 0.912670
vt 0.198936 0.903772
vt 0.219706 0.908753
vt 0.220650 0.498330
vt 0.207721 0.512941
vt 0.189411 0.532709
vt 0.170732 0.528260
vt 0.167875 0.536006
vt 0.193038 0.509295
vt 0.170968 0.556394
vt 0.153303 0.582550
vt 0.144767 0.554948
vt 0.138459 0.574566
vt 0.137330 0.609730
vt 0.123961 0.636486
vt 0.123055 0.589374
vt 0.116421 0.617592
vt 0.114107 0.661374
vt 0.106560 0.679231
vt 0.110308 0.624067
vt 0.103300 0.651583
vt 0.404562 0.498330
vt 0.391340 0.501850
vt 0.484525 0.010128
vt 0.473491 0.009804
vt 0.255709 0.773192
vt 0.266036 0.777003
vt 0.245242 0.782028
vt 0.196801 0.012187
vt 0.179958 0.019778
vt 0.143928 0.017329
vt 0.136199 0.024012
vt 0.153735 0.029417
vt 0.169193 0.009804
vt 0.124670 0.042197
vt 0.265996 0.381142
vt 0.252245 0.423040
vt 0.304331 0.454461
vt 0.304937 0.390043
vt 0.325607 0.346834
vt 0.377878 0.371144
vt 0.326825 0.873096
vt 0.322981 0.885105
vt 0.290505 0.990074
vt 0.329658 0.915067
vt 0.837209 0.793025
vt 0.351054 0.873096
vt 0.362641 0.908360
vt 0.426838 0.953500
vt 0.356208 0.879644
vt 0.203898 0.480095
vt 0.209492 0.419548
vt 0.168015 0.043991
vt 0.235320 0.317070
vt 0.200727 0.339935
vt 0.170375 0.362546
vt 0.152751 0.242222
vt 0.122844 0.266000
vt 0.187038 0.219067
vt 0.304718 0.278417
vt 0.257224 0.181848
vt 0.270982 0.295939
vt 0.222812 0.198347
vt 0.145274 0.143973
vt 0.111293 0.166976
vt 0.081693 0.190681
vt 0.090643 0.926277
vt 0.036916 0.889469
vt 0.022252 0.922530
vt 0.074351 0.960458
vt 0.110812 0.890544
vt 0.055642 0.855305
vt 0.012873 0.951593
vt 0.063687 0.990196
vt 0.214919 0.107251
vt 0.177066 0.802957
vt 0.120900 0.773192
vt 0.099623 0.794756
vt 0.155774 0.825992
vt 0.180771 0.123467
vt 0.133106 0.856152
vt 0.077207 0.822930
vt 0.024266 0.834139
vt 0.008955 0.864107
vt 0.081333 0.112671
vt 0.053173 0.135265
vt 0.179768 0.055987
vt 0.147258 0.071387
vt 0.043682 0.806758
vn -0.3359 0.3139 0.8881
vn -0.4541 0.6660 0.5918
vn -0.6765 0.6815 0.2791
vn -0.6690 0.4164 0.6157
vn -0.4607 0.1828 0.8685
vn -0.6554 0.2580 0.7099
vn -0.8168 0.1308 0.5619
vn -0.8583 0.4279 0.2833
vn -0.9353 0.2803 -0.2158
vn -0.8933 0.4483 0.0309
vn -0.7318 0.4441 -0.5169
vn -0.6359 0.6231 -0.4553
vn -0.5505 0.5919 -0.5887
vn -0.5575 0.8283 -0.0559
vn -0.4034 0.7568 -0.5143
vn -0.4280 0.8645 -0.2635
vn -0.2498 0.9446 -0.2131
vn -0.4047 0.8800 0.2485
vn -0.1082 0.8247 0.5551
vn -0.3651 0.8197 0.4413
vn -0.2644 0.5069 0.8205
vn -0.0169 0.0542 0.9984
vn -0.0232 0.0494 0.9985
vn -0.2818 -0.3924 0.8756
vn -0.4601 -0.3514 0.8154
vn -0.0478 -0.0512 0.9975
vn -0.2890 -0.4053 0.8673
vn -0.6499 -0.7258 -0.2255
vn -0.0536 -0.6166 0.7855
vn -0.5071 -0.5480 -0.6653
vn 0.0510 -0.8715 -0.4877
vn -0.6812 -0.7296 0.0610
vn -0.5303 -0.4225 -0.7350
vn -0.0955 -0.3517 -0.9312
vn 0.2133 -0.9196 0.3300
vn -0.0174 -0.2639 -0.9644
vn 0.2787 -0.4898 -0.8261
vn -0.2078 -0.2678 -0.9408
vn -0.1219 -0.1536 -0.9806
vn 0.0855 -0.1639 -0.9828
vn 0.3879 -0.4462 -0.8065
vn 0.1459 -0.1114 -0.9830
vn 0.4227 -0.4155 -0.8054
vn -0.0127 -0.0594 -0.9982
vn 0.0173 -0.0275 -0.9995
vn 0.2071 -0.0639 -0.9762
vn 0.4536 -0.3889 -0.8018
vn 0.3399 0.0144 -0.9404
vn 0.5159 -0.2496 -0.8195
vn 0.0994 0.0415 -0.9942
vn 0.1678 0.0901 -0.9817
vn 0.4398 0.0667 -0.8956
vn 0.8807 -0.0712 -0.4682
vn 0.9585 0.1814 -0.2201
vn 0.8346 0.1618 -0.5266
vn 0.3020 0.2218 -0.9271
vn 0.6115 0.3610 -0.7041
vn 0.8348 0.3607 0.4159
vn 0.5808 -0.1984 0.7895
vn 0.4156 0.3908 0.8213
vn 0.3514 0.1850 0.9178
vn 0.7358 0.6766 0.0268
vn 0.3718 0.4397 0.8176
vn -0.0513 0.0212 0.9985
vn -0.0641 0.0021 0.9979
vn 0.0724 -0.0031 0.9974
vn 0.0000 -0.1819 0.9833
vn -0.3142 -0.4683 0.8258
vn -0.0867 -0.2075 0.9744
vn -0.3930 -0.4506 0.8016
vn -0.8081 -0.5890 -0.0069
vn -0.6155 -0.3258 -0.7176
vn -0.8438 -0.5352 -0.0388
vn -0.7475 -0.2130 -0.6292
vn -0.3426 -0.1406 -0.9289
vn -0.2193 -0.0219 -0.9754
vn -0.3825 0.0000 -0.9239
vn -0.2883 0.0981 -0.9525
vn -0.1540 0.0533 -0.9866
vn -0.1081 0.1006 -0.9890
vn -0.2252 0.1737 -0.9587
vn -0.1969 0.2032 -0.9591
vn -0.0569 0.1426 -0.9881
vn 0.0237 0.2025 -0.9790
vn -0.1484 0.2414 -0.9590
vn -0.0944 0.2901 -0.9523
vn 0.1667 0.2991 -0.9395
vn 0.4651 0.4691 -0.7507
vn 0.0395 0.4132 -0.9098
vn 0.3164 0.5853 -0.7465
vn 0.7381 0.6747 0.0032
vn 0.3973 0.4488 0.8005
vn 0.5421 0.8397 0.0316
vn 0.3761 0.5425 0.7512
vn 0.1424 0.0221 0.9896
vn 0.2234 -0.0118 0.9747
vn 0.1022 -0.0597 0.9930
vn 0.0427 -0.0625 0.9971
vn 0.0146 -0.1207 0.9926
vn -0.2902 -0.1438 0.9461
vn -0.6135 -0.2053 0.7625
vn -0.9794 -0.1614 0.1210
vn -0.9676 0.0152 -0.2521
vn -0.6555 0.1023 -0.7482
vn -0.5339 0.1602 -0.8302
vn -0.3543 0.2305 -0.9063
vn -0.3226 0.2603 -0.9100
vn -0.2839 0.2818 -0.9165
vn -0.2466 0.3485 -0.9043
vn -0.2004 0.3890 -0.8992
vn 0.0185 0.7787 -0.6272
vn 0.2254 0.9729 -0.0524
vn 0.1383 0.8174 0.5593
vn 0.1637 0.3004 0.9396
vn 0.0623 0.1154 0.9914
vn 0.1275 -0.0618 0.9899
vn -0.0639 0.0571 0.9963
vn -0.0484 0.1052 0.9933
vn 0.7573 -0.6530 0.0144
vn -0.1458 0.0436 0.9884
vn -0.1515 0.0219 0.9882
vn -0.0123 0.1220 0.9925
vn 0.1466 -0.0677 0.9869
vn -0.0258 0.0017 0.9997
vn 0.0095 0.0461 0.9989
vn 0.0183 0.0775 0.9968
vn 0.0589 -0.0288 0.9978
vn 0.0472 -0.0244 0.9986
vn 0.0444 -0.0482 0.9978
vn -0.0699 -0.0267 0.9972
vn -0.0013 -0.0628 0.9980
vn -0.0478 -0.0114 0.9988
vn 0.0232 -0.0600 0.9979
vn 0.1029 -0.1068 0.9889
vn 0.0975 -0.1075 0.9894
vn 0.0839 -0.1058 0.9908
vn 0.1086 -0.1377 0.9845
vn 0.1085 -0.1380 0.9845
vn 0.1173 -0.1396 0.9832
vn 0.0803 -0.1011 0.9916
vn 0.1368 -0.1019 0.9853
vn 0.0831 -0.1174 0.9896
vn 0.1187 -0.1409 0.9829
usemtl Fur_Material
s 1
f 1/1/1 4/2/2 3/3/3 2/4/4
f 5/5/5 2/6/4 3/7/3 6/8/6
f 7/9/7 6/8/6 3/7/3 8/10/8
f 9/11/9 8/10/8 3/7/3 10/12/10
f 11/13/11 10/12/10 3/7/3 12/14/12
f 13/15/13 12/14/12 3/7/3 14/16/14
f 15/17/15 14/18/14 3/19/3 16/20/16
f 17/21/17 16/20/16 3/19/3 18/22/18
f 19/23/19 18/22/18 3/19/3 20/24/20
f 21/25/21 20/24/20 3/19/3 4/26/2
f 31/27/22 32/28/23 34/29/24 33/30/25
f 32/28/23 36/31/26 35/32/27 34/29/24
f 33/33/25 34/34/24 38/35/28 37/36/29
f 37/36/29 38/35/28 40/37/30 39/38/31
f 38/39/28 42/40/32 41/41/33 40/42/30
f 34/34/24 35/43/27 42/44/32 38/35/28
f 39/45/31 40/46/30 44/47/34 43/48/35
f 43/48/35 44/47/34 46/49/36 45/50/37
f 44/47/34 48/51/38 47/52/39 46/49/36
f 40/46/30 41/53/33 48/51/38 44/47/34
f 45/50/37 46/49/36 50/54/40 49/55/41
f 49/55/41 50/54/40 52/56/42 51/57/43
f 50/54/40 54/58/44 53/59/45 52/56/42
f 46/49/36 47/52/39 54/58/44 50/54/40
f 51/57/43 52/56/42 56/60/46 55/61/47
f 55/61/47 56/60/46 58/62/48 57/63/49
f 56/60/46 60/64/50 59/65/51 58/62/48
f 52/56/42 53/59/45 60/64/50 56/60/46
f 57/63/49 58/62/48 62/66/52 61/67/53
f 61/67/53 62/66/52 64/68/54 63/69/55
f 62/66/52 66/70/56 65/71/57 64/68/54
f 58/62/48 59/65/51 66/70/56 62/66/52
f 63/72/55 64/73/54 68/74/58 67/75/59
f 67/75/59 68/74/58 70/76/60 69/77/61
f 68/74/58 72/78/62 71/79/63 70/76/60
f 64/80/54 65/81/57 72/82/62 68/83/58
f 69/84/61 70/85/60 74/86/64 73/87/65
f 70/85/60 71/88/63 78/89/66 74/86/64
f 36/31/26 88/90/67 89/91/68 35/32/27
f 88/90/67 91/92/69 90/93/70 89/91/68
f 35/43/27 89/94/68 92/95/71 42/44/32
f 42/40/32 92/96/71 93/97/72 41/41/33
f 92/96/71 95/98/73 94/99/74 93/97/72
f 89/94/68 90/100/70 95/101/73 92/95/71
f 41/41/33 93/97/72 96/102/75 48/103/38
f 48/51/38 96/104/75 97/105/76 47/52/39
f 96/106/75 99/107/77 98/108/78 97/109/76
f 93/110/72 94/111/74 99/107/77 96/106/75
f 47/52/39 97/105/76 100/112/79 54/58/44
f 54/58/44 100/112/79 101/113/80 53/59/45
f 100/114/79 103/115/81 102/116/82 101/117/80
f 97/109/76 98/108/78 103/115/81 100/114/79
f 53/59/45 101/113/80 104/118/83 60/64/50
f 60/64/50 104/118/83 105/119/84 59/65/51
f 104/120/83 107/121/85 106/122/86 105/123/84
f 101/117/80 102/116/82 107/121/85 104/120/83
f 59/65/51 105/119/84 108/124/87 66/70/56
f 66/125/56 108/126/87 109/127/88 65/81/57
f 108/128/87 111/129/89 110/130/90 109/131/88
f 105/123/84 106/122/86 111/129/89 108/128/87
f 65/81/57 109/127/88 112/132/91 72/82/62
f 72/78/62 112/133/91 113/134/92 71/79/63
f 112/133/91 115/135/93 114/136/94 113/134/92
f 109/127/88 110/137/90 115/138/93 112/132/91
f 71/88/63 113/139/92 116/140/95 78/89/66
f 113/139/92 114/141/94 119/142/96 116/140/95
f 122/143/97 2/4/4 5/144/5 124/145/98
f 123/146/99 1/1/1 2/4/4 122/143/97
f 91/92/69 126/147/100 125/148/101 90/93/70
f 126/147/100 6/149/6 7/150/7 125/148/101
f 124/145/98 5/144/5 6/149/6 126/147/100
f 90/100/70 125/151/101 127/152/102 95/101/73
f 95/98/73 127/153/102 128/154/103 94/99/74
f 127/155/102 8/10/8 9/11/9 128/156/103
f 125/157/101 7/9/7 8/10/8 127/155/102
f 94/111/74 128/158/103 129/159/104 99/107/77
f 99/107/77 129/159/104 130/160/105 98/108/78
f 129/159/104 10/161/10 11/162/11 130/160/105
f 128/158/103 9/163/9 10/161/10 129/159/104
f 98/108/78 130/160/105 131/164/106 103/115/81
f 103/115/81 131/164/106 132/165/107 102/116/82
f 131/164/106 12/166/12 13/167/13 132/165/107
f 130/160/105 11/162/11 12/166/12 131/164/106
f 102/116/82 132/165/107 133/168/108 107/121/85
f 107/121/85 133/168/108 134/169/109 106/122/86
f 133/168/108 14/170/14 15/171/15 134/169/109
f 132/165/107 13/167/13 14/170/14 133/168/108
f 106/122/86 134/169/109 135/172/110 111/129/89
f 111/129/89 135/172/110 136/173/111 110/130/90
f 135/172/110 16/174/16 17/175/17 136/173/111
f 134/169/109 15/171/15 16/174/16 135/172/110
f 110/137/90 136/176/111 137/177/112 115/138/93
f 115/135/93 137/178/112 138/179/113 114/136/94
f 137/180/112 18/22/18 19/23/19 138/181/113
f 136/182/111 17/21/17 18/22/18 137/180/112
f 114/141/94 138/183/113 139/184/114 119/142/96
f 139/184/114 20/185/20 21/186/21 141/187/115
f 138/183/113 19/188/19 20/185/20 139/184/114
f 142/189/116 4/2/2 1/1/1 123/146/99
f 141/187/115 21/186/21 4/2/2 142/189/116
f 22/190/117 23/191/118 143/192/119 79/193/120
f 75/194/121 79/193/120 143/192/119 73/87/65
f 69/84/61 73/87/65 143/192/119 67/195/59
f 63/196/55 67/197/59 143/198/119 61/199/53
f 143/200/119 43/48/35 45/50/37 49/55/41 51/57/43 55/61/47 57/63/49 61/67/53
f 39/201/31 43/202/35 143/203/119 37/204/29
f 33/30/25 37/205/29 143/192/119 31/27/22
f 26/206/122 31/27/22 143/192/119 23/191/118
f 124/145/98 126/147/100 91/92/69
f 140/207/123 141/187/115 142/189/116
f 119/142/96 139/184/114 141/187/115 140/207/123
usemtl blinn3SG.001
f 22/190/117 25/208/124 24/209/125 23/191/118
f 23/191/118 24/209/125 27/210/126 26/206/122
f 24/209/125 29/211/127 28/212/128 27/210/126
f 25/208/124 30/213/129 29/211/127 24/209/125
f 26/206/122 27/210/126 32/28/23 31/27/22
f 27/210/126 28/212/128 36/31/26 32/28/23
f 73/87/65 74/86/64 76/214/130 75/194/121
f 74/86/64 78/89/66 77/215/131 76/214/130
f 75/194/121 76/214/130 80/216/132 79/193/120
f 79/193/120 80/216/132 25/208/124 22/190/117
f 80/216/132 81/217/133 30/213/129 25/208/124
f 76/214/130 77/215/131 81/217/133 80/216/132
f 30/213/129 83/218/134 82/219/135 29/211/127
f 29/211/127 82/219/135 84/220/136 28/212/128
f 82/221/135 86/222/137 85/223/138 84/224/136
f 83/225/134 87/226/139 86/222/137 82/221/135
f 28/212/128 84/220/136 88/90/67 36/31/26
f 84/224/136 85/223/138 91/227/69 88/228/67
f 78/89/66 116/140/95 117/229/140 77/215/131
f 116/230/95 119/231/96 118/232/141 117/233/140
f 77/215/131 117/229/140 120/234/142 81/217/133
f 81/217/133 120/234/142 83/218/134 30/213/129
f 120/235/142 121/236/143 87/226/139 83/225/134
f 117/233/140 118/232/141 121/236/143 120/235/142
f 87/226/139 123/237/99 122/238/97 86/222/137
f 86/239/137 122/143/97 124/145/98 85/240/138
f 85/240/138 124/145/98 91/92/69
f 119/142/96 140/207/123 118/241/141
f 118/241/141 140/207/123 142/189/116 121/242/143
f 121/236/143 142/243/116 123/237/99 87/226/139
