# Blender v2.92.0 OBJ File: 'FurDog.blend'
# www.blender.org
mtllib Pointed.mtl
o Pointed_Pointed_Ears
v -0.035030 1.493490 0.556599
v -0.048627 1.464906 0.554607
v -0.049252 1.469382 0.532429
v -0.033978 1.497432 0.538439
v -0.061716 1.481308 0.503115
v -0.043730 1.501336 0.515325
v -0.080547 1.435470 0.525189
v -0.093924 1.448853 0.493148
v -0.077219 1.432545 0.549683
v -0.062705 1.495558 0.534935
v -0.073290 1.510594 0.529296
v -0.092481 1.494977 0.519852
v -0.076521 1.479508 0.530087
v -0.114833 1.471733 0.514988
v -0.098921 1.454904 0.526300
v -0.109536 1.512133 0.516985
v -0.131254 1.489768 0.511662
v -0.091069 1.528403 0.526137
v -0.139017 1.380745 0.536189
v -0.166112 1.390424 0.525997
v -0.169892 1.390455 0.508944
v -0.143521 1.380008 0.516078
v -0.166370 1.405027 0.486801
v -0.147348 1.390861 0.493838
v -0.192270 1.420530 0.506317
v -0.187112 1.434586 0.487237
v -0.188617 1.418815 0.519534
v -0.175975 1.539122 0.498818
v -0.154010 1.559604 0.506450
v -0.131948 1.543802 0.498152
v -0.158372 1.518818 0.488102
v -0.106880 1.523904 0.491606
v -0.137308 1.495096 0.479576
v -0.111210 1.559982 0.515571
v -0.083184 1.541872 0.511909
v -0.136781 1.573292 0.521110
v -0.057109 1.520245 0.511339
v -0.044467 1.523175 0.537434
v -0.044911 1.519836 0.553452
v -0.070753 1.546253 0.535851
v -0.069440 1.542890 0.549220
v -0.129200 1.556259 0.527696
v -0.145362 1.562605 0.531708
v -0.155615 1.549970 0.522993
v -0.142784 1.541769 0.518999
v -0.171074 1.535493 0.519205
v -0.161154 1.523889 0.514353
v -0.166064 1.554306 0.528145
v -0.177926 1.543654 0.525346
v -0.160344 1.564643 0.537317
v -0.216270 1.483087 0.530575
v -0.222056 1.510497 0.542210
v -0.225899 1.516210 0.534880
v -0.219714 1.487831 0.522100
v -0.222287 1.525328 0.520610
v -0.215081 1.498791 0.507439
v -0.226918 1.541106 0.550116
v -0.224787 1.547810 0.535565
v -0.222487 1.534983 0.556315
v -0.208539 1.538719 0.511029
v -0.198721 1.517094 0.498872
v -0.189752 1.555084 0.509514
v -0.214533 1.555938 0.524491
v -0.200256 1.567355 0.522575
v -0.158828 1.581899 0.528514
v -0.149625 1.584377 0.545308
v -0.126245 1.576892 0.539322
v -0.144071 1.580356 0.553940
v -0.121740 1.573394 0.549108
v -0.171291 1.587669 0.555537
v -0.165302 1.582991 0.562753
v -0.178354 1.586492 0.539414
v -0.175227 1.563334 0.543135
v -0.174181 1.556323 0.533022
v -0.183257 1.549981 0.532469
v -0.189110 1.556298 0.544900
v -0.217079 1.557203 0.571362
v -0.221982 1.563075 0.566479
v -0.221696 1.566536 0.551168
v -0.210185 1.579200 0.574712
v -0.211191 1.580069 0.557861
v -0.205026 1.573792 0.579268
v -0.216689 1.567630 0.538077
v -0.207719 1.576199 0.539567
v -0.196096 1.586943 0.552659
v -0.192310 1.586883 0.568689
v -0.186634 1.581725 0.574123
v -0.181018 1.504891 0.510689
v -0.169118 1.485327 0.506242
v -0.147342 1.507964 0.511816
v -0.153912 1.464355 0.505789
v -0.187437 1.466142 0.506403
v -0.172385 1.441576 0.505575
v -0.198125 1.489911 0.512972
v -0.191355 1.533262 0.524913
v -0.188201 1.520770 0.517471
v -0.203514 1.510453 0.522003
v -0.203864 1.528272 0.531789
v -0.199471 1.543963 0.540616
v -0.191889 1.542215 0.531156
v -0.108888 1.399092 0.543827
v -0.113948 1.399654 0.520049
v -0.126034 1.412605 0.490182
v -0.145813 1.433546 0.476446
v -0.114310 1.470146 0.478369
v -0.166955 1.461922 0.477539
v -0.187168 1.578624 0.526510
v -0.172277 1.570978 0.515293
v -0.197772 1.582661 0.539027
v -0.047469 1.493818 0.549874
v -0.059826 1.469226 0.548373
v -0.084819 1.440385 0.544788
v -0.122411 1.566536 0.541774
v -0.100375 1.554616 0.540221
v -0.096528 1.560941 0.547530
v -0.076997 1.537564 0.541677
v -0.110671 1.544436 0.525747
v -0.160829 1.574686 0.553084
v -0.142019 1.572815 0.546023
v -0.197095 1.565081 0.565104
v -0.180042 1.572903 0.561595
v -0.112649 1.410256 0.540277
v -0.138605 1.393077 0.533703
v -0.122433 1.427487 0.523344
v -0.139607 1.409303 0.522124
v -0.162184 1.401516 0.522801
v -0.182814 1.426046 0.515013
v -0.154876 1.420473 0.512379
v -0.209405 1.483105 0.523821
v -0.214631 1.507696 0.534350
v -0.214463 1.529706 0.546517
v -0.208821 1.549776 0.558711
v -0.126914 1.528575 0.517035
v -0.205271 1.451742 0.521819
v -0.208736 1.455160 0.511543
v -0.203524 1.467784 0.495329
v -0.081376 1.501482 0.490671
v -0.099623 1.564295 0.536292
v -0.137511 1.444639 0.511055
v -0.184898 1.490944 0.486742
v -0.056167 1.516637 0.545863
v -0.198741 1.455091 0.516089
vt 0.398122 0.578358
vt 0.352922 0.632240
vt 0.377666 0.643342
vt 0.429706 0.563406
vt 0.402410 0.654444
vt 0.435270 0.588421
vt 0.324093 0.722169
vt 0.347271 0.738751
vt 0.300915 0.705587
vt 0.740839 0.048353
vt 0.753183 0.120992
vt 0.780653 0.112759
vt 0.755247 0.018116
vt 0.808122 0.104526
vt 0.782357 0.035200
vt 0.805063 0.203701
vt 0.832285 0.196443
vt 0.777841 0.210958
vt 0.370526 0.405536
vt 0.443525 0.358430
vt 0.409004 0.295938
vt 0.330884 0.346315
vt 0.364092 0.223944
vt 0.283956 0.275654
vt 0.486892 0.244499
vt 0.443984 0.171113
vt 0.516271 0.310319
vt 0.647771 0.035810
vt 0.622159 0.105345
vt 0.650779 0.115160
vt 0.675618 0.019738
vt 0.679399 0.124976
vt 0.691045 0.051377
vt 0.626913 0.206850
vt 0.655257 0.215649
vt 0.598570 0.198051
vt 0.818142 0.361319
vt 0.828500 0.409073
vt 0.855120 0.407122
vt 0.845106 0.357125
vt 0.881740 0.405170
vt 0.872070 0.352932
vt 0.861330 0.447172
vt 0.879520 0.436942
vt 0.840035 0.437378
vt 0.223263 0.494733
vt 0.274808 0.522794
vt 0.337325 0.485742
vt 0.297021 0.450636
vt 0.399502 0.447756
vt 0.373332 0.506590
vt 0.421549 0.479012
vt 0.331307 0.534562
vt 0.560648 0.357098
vt 0.553959 0.413433
vt 0.581438 0.416566
vt 0.588631 0.362692
vt 0.608917 0.419700
vt 0.616614 0.368287
vt 0.578830 0.461568
vt 0.599768 0.451283
vt 0.559195 0.449352
vt 0.117626 0.584909
vt 0.114038 0.626306
vt 0.137857 0.622286
vt 0.136273 0.566224
vt 0.161676 0.618267
vt 0.155712 0.575570
vt 0.140109 0.676736
vt 0.162832 0.675858
vt 0.117386 0.677614
vt 0.395948 0.538663
vt 0.405166 0.519886
vt 0.440405 0.505343
vt 0.453938 0.523922
vt 0.166348 0.767926
vt 0.167847 0.729884
vt 0.143700 0.727959
vt 0.147959 0.777569
vt 0.119552 0.726035
vt 0.127441 0.762407
vt 0.248908 0.778934
vt 0.267452 0.798778
vt 0.285997 0.818622
vt 0.209278 0.874278
vt 0.234646 0.871362
vt 0.212997 0.839443
vt 0.045502 0.229184
vt 0.067193 0.299513
vt 0.150287 0.249904
vt 0.095208 0.171797
vt 0.233124 0.199114
vt 0.180339 0.119634
vt 0.203330 0.325123
vt 0.122459 0.373473
vt 0.467273 0.447465
vt 0.461000 0.407903
vt 0.522159 0.367117
vt 0.511311 0.421272
vt 0.490481 0.479166
vt 0.468189 0.480222
vt 0.501240 0.887771
vt 0.520736 0.889644
vt 0.516571 0.814326
vt 0.491442 0.827464
vt 0.512406 0.739008
vt 0.486491 0.737941
vt 0.772931 0.490980
vt 0.779783 0.519295
vt 0.822506 0.538880
vt 0.821298 0.511481
vt 0.867209 0.567333
vt 0.873497 0.542528
vt 0.814552 0.571927
vt 0.853628 0.598440
vt 0.776489 0.552427
vt 0.680151 0.499201
vt 0.698257 0.526070
vt 0.739309 0.516502
vt 0.727309 0.488645
vt 0.741144 0.547499
vt 0.707156 0.553458
vt 0.584752 0.548791
vt 0.617993 0.572261
vt 0.653803 0.543571
vt 0.627177 0.517374
vt 0.673159 0.566620
vt 0.645349 0.591515
vt 0.508241 0.663689
vt 0.481541 0.648417
vt 0.504076 0.588371
vt 0.484700 0.588644
vt 0.769612 0.886502
vt 0.785878 0.873431
vt 0.741428 0.839582
vt 0.728233 0.861927
vt 0.696978 0.805733
vt 0.693452 0.826179
vt 0.760206 0.810298
vt 0.704500 0.789542
vt 0.797537 0.836992
vt 0.589551 0.734425
vt 0.613997 0.743125
vt 0.606048 0.704442
vt 0.575716 0.702439
vt 0.601280 0.662839
vt 0.569833 0.654785
vt 0.635999 0.695788
vt 0.630181 0.662018
vt 0.645800 0.747513
vt 0.602873 0.615398
vt 0.569241 0.599082
vt 0.631144 0.625874
vt 0.800375 0.293173
vt 0.827484 0.287237
vt 0.854593 0.281301
vt 0.397505 0.091623
vt 0.315443 0.145959
vt 0.264926 0.064980
vt 0.340229 0.043690
vt 0.576792 0.283636
vt 0.604993 0.291074
vt 0.633194 0.298511
vt 0.173481 0.441753
vt 0.252299 0.394565
vt 0.892011 0.624411
vt 0.913625 0.596729
vt 0.930616 0.576502
vt 0.960898 0.626597
vt 0.967977 0.606744
vt 0.930048 0.650109
vt 0.056310 0.575932
vt 0.040819 0.620941
vt 0.053668 0.635195
vt 0.072080 0.565002
vt 0.066517 0.649450
vt 0.078644 0.589168
vt 0.035256 0.705389
vt 0.047966 0.702605
vt 0.031752 0.673076
vt 0.861151 0.666999
vt 0.896096 0.691326
vt 0.825658 0.717056
vt 0.860594 0.741396
vt 0.825459 0.642153
vt 0.789976 0.692196
vt 0.722651 0.584778
vt 0.752900 0.595191
vt 0.693957 0.625248
vt 0.719127 0.642823
vt 0.697639 0.581885
vt 0.675242 0.612207
vt 0.677976 0.583371
vt 0.660935 0.602334
vt 0.685280 0.690557
vt 0.717267 0.716407
vt 0.752799 0.666295
vt 0.754454 0.742293
vt 0.681704 0.766560
vt 0.653991 0.643443
vt 0.665187 0.665821
vt 0.648694 0.624669
vt 0.541700 0.801187
vt 0.538320 0.740074
vt 0.538148 0.853858
vt 0.534941 0.678961
vt 0.525535 0.625757
vt 0.788272 0.616267
vt 0.790146 0.767139
vt 0.825091 0.791466
vn 0.8641 -0.0866 0.4959
vn 0.7964 -0.5581 0.2329
vn 0.7786 -0.5327 -0.3316
vn 0.9663 -0.0953 -0.2391
vn 0.6515 -0.3283 -0.6839
vn 0.8029 0.0046 -0.5960
vn 0.7146 -0.5928 -0.3713
vn 0.5845 -0.4083 -0.7012
vn 0.7784 -0.6091 0.1518
vn 0.2498 -0.9144 0.3185
vn -0.5792 -0.6450 0.4984
vn -0.6153 -0.7582 -0.2157
vn 0.2503 -0.9223 -0.2945
vn -0.3134 -0.4647 -0.8282
vn 0.1979 -0.7009 -0.6852
vn -0.8332 -0.4950 -0.2464
vn -0.5401 -0.2363 -0.8077
vn -0.6982 -0.4410 0.5640
vn -0.1968 0.3703 -0.9078
vn 0.0089 0.5489 -0.8358
vn 0.0931 0.4813 -0.8716
vn -0.1104 0.3084 -0.9448
vn 0.1986 0.3852 -0.9012
vn 0.0114 0.2001 -0.9797
vn 0.3126 0.7082 -0.6331
vn 0.4258 0.6241 -0.6551
vn 0.2150 0.7880 -0.5769
vn 0.5846 0.4645 -0.6652
vn 0.7824 0.5979 -0.1742
vn 0.5423 0.4760 0.6923
vn 0.5865 0.7821 -0.2105
vn 0.3466 0.5560 0.7555
vn -0.5651 -0.4291 0.7046
vn -0.4810 -0.4376 0.7597
vn -0.9919 -0.1211 -0.0383
vn -0.9659 -0.2074 -0.1549
vn -0.8602 0.0987 -0.5003
vn -0.7660 0.0251 -0.6424
vn -0.9897 -0.0002 0.1432
vn -0.9352 0.2053 -0.2886
vn -0.3069 -0.5326 0.7888
vn -0.5441 0.2950 -0.7855
vn -0.4374 0.2272 -0.8701
vn -0.2905 0.4401 -0.8496
vn -0.6591 0.4135 -0.6282
vn -0.4209 0.5674 -0.7078
vn 0.1026 0.8872 -0.4499
vn 0.2278 0.9724 -0.0495
vn 0.3479 0.9228 -0.1657
vn 0.4256 0.4426 0.7893
vn 0.3408 0.5367 0.7719
vn 0.1153 0.9865 0.1161
vn 0.4787 0.2457 0.8429
vn -0.0158 0.9657 -0.2594
vn -0.1278 -0.5385 0.8329
vn -0.9108 0.2366 0.3384
vn -0.9000 0.4274 -0.0859
vn -0.5835 0.6646 0.4666
vn -0.6235 0.7817 -0.0125
vn 0.1344 -0.2371 0.9621
vn -0.7187 0.5545 -0.4195
vn -0.5550 0.7227 -0.4119
vn -0.2280 0.9694 -0.0911
vn -0.0994 0.9448 0.3124
vn 0.4444 -0.0097 0.8958
vn 0.6727 -0.7279 0.1328
vn 0.6540 -0.6723 -0.3468
vn 0.5139 -0.4880 -0.7056
vn 0.0693 -0.1701 -0.9830
vn 0.2446 -0.0347 -0.9690
vn -0.1980 0.0282 -0.9798
vn -0.2227 0.7647 -0.6047
vn -0.0882 0.6436 -0.7602
vn -0.3567 0.8410 -0.4068
vn -0.5574 0.0872 0.8256
vn -0.5060 0.2821 0.8151
vn -0.4801 0.3136 0.8192
vn -0.2348 -0.7039 0.6704
vn -0.3834 -0.5858 0.7141
vn 0.3016 0.5244 0.7963
vn -0.4821 -0.4491 0.7523
vn -0.3159 -0.4675 0.8256
vn -0.4104 -0.3600 0.8378
vn -0.2048 -0.5920 0.7795
vn 0.2475 -0.7577 0.6038
vn 0.0096 -0.7751 0.6318
vn -0.0164 -0.7327 0.6803
vn 0.1822 -0.8011 0.5701
vn 0.4704 -0.6535 0.5930
vn 0.4035 -0.6982 0.5913
vn 0.3559 -0.7833 0.5097
vn 0.5080 -0.6998 0.5023
vn -0.4572 0.3153 0.8316
vn -0.3701 0.3389 0.8650
vn -0.0619 0.4072 0.9112
vn 0.2886 0.3160 0.9038
vn -0.1226 0.3421 0.9316
vn 0.0779 0.1889 0.9789
vn -0.3630 0.4492 0.8164
vn 0.6856 -0.0291 0.7274
vn 0.7091 -0.2390 0.6634
vn 0.6390 -0.4568 0.6188
vn 0.6312 -0.2338 0.7395
vn 0.6885 -0.3938 0.6090
vn 0.4895 -0.0966 0.8666
vn 0.5360 -0.5991 0.5948
vn 0.6333 -0.5707 0.5228
vn -0.6230 -0.3453 0.7019
vn -0.9189 -0.3267 -0.2210
vn -0.6719 -0.0743 -0.7369
vn 0.3674 0.1545 -0.9172
vn 0.4631 0.8604 -0.2128
vn -0.3390 0.1545 -0.9280
vn -0.5133 -0.2106 0.8320
vn -0.5610 -0.2568 0.7869
vn -0.6199 0.0812 0.7805
vn 0.2980 0.0321 0.9540
vn 0.5545 0.1460 0.8193
vn -0.3347 0.0272 0.9419
vn -0.5312 0.2963 0.7938
vn -0.3190 0.1122 0.9411
vn -0.5070 0.3350 0.7942
vn -0.2174 -0.1385 0.9662
vn -0.1759 -0.0647 0.9823
vn 0.0829 -0.4759 0.8756
vn -0.0590 -0.3261 0.9435
vn 0.1639 -0.3657 0.9162
vn 0.0173 -0.2462 0.9691
vn 0.2242 -0.6092 0.7607
vn 0.2966 -0.4881 0.8208
vn 0.3395 -0.6920 0.6371
vn 0.4358 -0.6328 0.6400
vn 0.1519 -0.2145 0.9648
vn 0.0071 -0.1165 0.9932
vn -0.0843 -0.1618 0.9832
vn -0.1271 0.0081 0.9919
vn 0.4478 -0.4393 0.7788
vn 0.3221 -0.3251 0.8891
vn 0.5204 -0.5542 0.6496
vn -0.4855 0.3615 0.7960
vn -0.1427 -0.2272 0.9633
vn -0.2909 0.1708 0.9414
usemtl Fur_Material
s 1
f 1/1/1 2/2/2 3/3/3 4/4/4
f 4/4/4 3/3/3 5/5/5 6/6/6
f 3/3/3 7/7/7 8/8/8 5/5/5
f 2/2/2 9/9/9 7/7/7 3/3/3
f 19/10/10 20/11/11 21/12/12 22/13/13
f 22/13/13 21/12/12 23/14/14 24/15/15
f 21/12/12 25/16/16 26/17/17 23/14/14
f 20/11/11 27/18/18 25/16/16 21/12/12
f 28/19/19 29/20/20 30/21/21 31/22/22
f 31/22/22 30/21/21 32/23/23 33/24/24
f 30/21/21 34/25/25 35/26/26 32/23/23
f 29/20/20 36/27/27 34/25/25 30/21/21
f 6/28/6 37/29/28 38/30/29 4/31/4
f 4/31/4 38/30/29 39/32/30 1/33/1
f 38/30/29 40/34/31 41/35/32 39/32/30
f 37/29/28 35/36/26 40/34/31 38/30/29
f 51/37/33 52/38/34 53/39/35 54/40/36
f 54/40/36 53/39/35 55/41/37 56/42/38
f 53/39/35 57/43/39 58/44/40 55/41/37
f 52/38/34 59/45/41 57/43/39 53/39/35
f 56/46/38 55/47/37 60/48/42 61/49/43
f 61/49/43 60/48/42 62/50/44 28/19/19
f 60/48/42 63/51/45 64/52/46 62/50/44
f 55/47/37 58/53/40 63/51/45 60/48/42
f 36/54/27 65/55/47 66/56/48 67/57/49
f 67/57/49 66/56/48 68/58/50 69/59/51
f 66/56/48 70/60/52 71/61/53 68/58/50
f 65/55/47 72/62/54 70/60/52 66/56/48
f 59/63/41 77/64/55 78/65/56 57/66/39
f 57/66/39 78/65/56 79/67/57 58/68/40
f 78/65/56 80/69/58 81/70/59 79/67/57
f 77/64/55 82/71/60 80/69/58 78/65/56
f 58/53/40 79/72/57 83/73/61 63/51/45
f 64/52/46 63/51/45 83/73/61 84/74/62
f 81/75/59 84/74/62 83/73/61 79/72/57
f 72/76/54 85/77/63 86/78/64 70/79/52
f 70/79/52 86/78/64 87/80/65 71/81/53
f 86/78/64 80/69/58 82/71/60 87/80/65
f 85/77/63 81/70/59 80/69/58 86/78/64
f 9/9/9 101/82/66 102/83/67 7/7/7
f 7/7/7 102/83/67 103/84/68 8/8/8
f 102/83/67 22/85/13 24/86/15 103/84/68
f 101/82/66 19/87/10 22/85/13 102/83/67
f 24/88/15 23/89/14 104/90/69 103/91/68
f 103/91/68 104/90/69 105/92/70 8/93/8
f 104/90/69 106/94/71 33/24/24 105/92/70
f 23/89/14 26/95/17 106/94/71 104/90/69
f 64/52/46 107/96/72 108/97/73 62/50/44
f 62/50/44 108/97/73 29/20/20 28/19/19
f 108/97/73 65/98/47 36/27/27 29/20/20
f 107/96/72 72/99/54 65/98/47 108/97/73
f 81/75/59 85/100/63 109/101/74 84/74/62
f 64/52/46 84/74/62 109/101/74 107/96/72
f 72/99/54 107/96/72 109/101/74 85/100/63
f 1/102/1 110/103/75 111/104/76 2/105/2
f 2/105/2 111/104/76 112/106/77 9/107/9
f 69/108/51 113/109/78 114/110/79 115/111/80
f 115/111/80 114/110/79 116/112/81 41/113/32
f 114/110/79 117/114/82 18/115/83 116/112/81
f 113/109/78 42/116/84 117/114/82 114/110/79
f 71/117/53 118/118/85 119/119/86 68/120/50
f 68/120/50 119/119/86 113/109/78 69/108/51
f 119/119/86 43/121/87 42/116/84 113/109/78
f 118/118/85 50/122/88 43/121/87 119/119/86
f 82/123/60 120/124/89 121/125/90 87/126/65
f 87/126/65 121/125/90 118/118/85 71/117/53
f 121/125/90 73/127/91 50/122/88 118/118/85
f 120/124/89 76/128/92 73/127/91 121/125/90
f 9/107/9 112/106/77 122/129/93 101/130/66
f 101/130/66 122/129/93 123/131/94 19/132/10
f 19/133/10 123/134/94 126/135/95 20/136/11
f 20/136/11 126/135/95 127/137/96 27/138/18
f 126/135/95 128/139/97 93/140/98 127/137/96
f 123/134/94 125/141/99 128/139/97 126/135/95
f 51/142/33 129/143/100 130/144/101 52/145/34
f 52/145/34 130/144/101 131/146/102 59/147/41
f 130/144/101 97/148/103 98/149/104 131/146/102
f 129/143/100 94/150/105 97/148/103 130/144/101
f 59/147/41 131/146/102 132/151/106 77/152/55
f 77/152/55 132/151/106 120/124/89 82/123/60
f 132/151/106 99/153/107 76/128/92 120/124/89
f 131/146/102 98/149/104 99/153/107 132/151/106
f 27/18/18 134/154/108 135/155/109 25/16/16
f 25/16/16 135/155/109 136/156/110 26/17/17
f 135/155/109 54/40/36 56/42/38 136/156/110
f 134/154/108 51/37/33 54/40/36 135/155/109
f 35/26/26 37/157/28 137/158/111 32/23/23
f 32/23/23 137/158/111 105/92/70 33/24/24
f 137/158/111 5/159/5 8/93/8 105/92/70
f 37/157/28 6/160/6 5/159/5 137/158/111
f 35/36/26 34/161/25 138/162/112 40/34/31
f 40/34/31 138/162/112 115/163/80 41/35/32
f 138/162/112 67/57/49 69/59/51 115/163/80
f 34/161/25 36/54/27 67/57/49 138/162/112
f 26/95/17 136/164/110 140/165/113 106/94/71
f 106/94/71 140/165/113 31/22/22 33/24/24
f 140/165/113 61/49/43 28/19/19 31/22/22
f 136/164/110 56/46/38 61/49/43 140/165/113
f 18/115/83 11/166/114 141/167/115 116/112/81
f 116/112/81 141/167/115 39/168/30 41/113/32
f 141/167/115 110/169/75 1/170/1 39/168/30
f 11/166/114 10/171/116 110/169/75 141/167/115
f 93/172/98 92/173/117 142/174/118 127/175/96
f 127/175/96 142/174/118 134/176/108 27/177/18
f 142/174/118 129/178/100 51/179/33 134/176/108
f 92/173/117 94/180/105 129/178/100 142/174/118
usemtl blinn3SG.001
f 10/171/116 11/166/114 12/181/119 13/182/120
f 13/182/120 12/181/119 14/183/121 15/184/122
f 12/181/119 16/185/123 17/186/124 14/183/121
f 11/166/114 18/115/83 16/185/123 12/181/119
f 42/116/84 43/121/87 44/187/125 45/188/126
f 45/188/126 44/187/125 46/189/127 47/190/128
f 44/187/125 48/191/129 49/192/130 46/189/127
f 43/121/87 50/122/88 48/191/129 44/187/125
f 50/122/88 73/127/91 74/193/131 48/191/129
f 49/192/130 48/191/129 74/193/131 75/194/132
f 76/128/92 75/194/132 74/193/131 73/127/91
f 47/190/128 88/195/133 89/196/134 90/197/135
f 90/197/135 89/196/134 91/198/136 17/186/124
f 89/196/134 92/199/117 93/140/98 91/198/136
f 88/195/133 94/150/105 92/199/117 89/196/134
f 49/192/130 95/200/137 96/201/138 46/189/127
f 46/189/127 96/201/138 88/195/133 47/190/128
f 96/201/138 97/148/103 94/150/105 88/195/133
f 95/200/137 98/149/104 97/148/103 96/201/138
f 76/128/92 99/153/107 100/202/139 75/194/132
f 49/192/130 75/194/132 100/202/139 95/200/137
f 98/149/104 95/200/137 100/202/139 99/153/107
f 111/104/76 13/203/120 15/204/122 112/106/77
f 110/103/75 10/205/116 13/203/120 111/104/76
f 122/129/93 124/206/140 125/207/99 123/131/94
f 112/106/77 15/204/122 124/206/140 122/129/93
f 18/115/83 117/114/82 133/208/141 16/185/123
f 16/185/123 133/208/141 90/197/135 17/186/124
f 133/208/141 45/188/126 47/190/128 90/197/135
f 117/114/82 42/116/84 45/188/126 133/208/141
f 93/140/98 128/139/97 139/209/142 91/198/136
f 91/198/136 139/209/142 14/183/121 17/186/124
f 139/209/142 124/210/140 15/184/122 14/183/121
f 128/139/97 125/141/99 124/210/140 139/209/142
